<svg viewBox="0 0 16 16" xmlns="http://www.w3.org/2000/svg"><g transform="translate(0 .762)" fill="#FFF" fill-rule="nonzero"><path d="M7.619 1.373c2.034 0 2.276.007 3.079.044.867.04 1.672.213 2.29.833.62.619.794 1.423.833 2.29.037.803.044 1.045.044 3.079 0 2.034-.007 2.276-.044 3.079-.04.867-.213 1.672-.832 2.29-.62.62-1.424.794-2.291.833-.803.037-1.045.044-3.079.044-2.034 0-2.276-.007-3.079-.044-.867-.04-1.671-.213-2.29-.832-.62-.62-.793-1.424-.833-2.291-.037-.803-.044-1.045-.044-3.079 0-2.034.007-2.276.044-3.079.04-.867.213-1.671.833-2.29.619-.62 1.423-.793 2.29-.833.803-.037 1.045-.044 3.079-.044zm0-1.373C5.549 0 5.29.009 4.477.046 3.24.102 2.152.406 1.28 1.279.406 2.152.102 3.239.046 4.477.009 5.29 0 5.55 0 7.62c0 2.07.009 2.329.046 3.142.056 1.238.36 2.325 1.233 3.198.873.873 1.96 1.177 3.198 1.233.813.037 1.073.046 3.142.046 2.07 0 2.329-.009 3.142-.046 1.238-.056 2.325-.36 3.198-1.233.873-.873 1.177-1.96 1.233-3.198.037-.813.046-1.073.046-3.142 0-2.07-.009-2.329-.046-3.142-.056-1.238-.36-2.325-1.233-3.198C13.086.406 12 .102 10.761.046 9.948.009 9.688 0 7.619 0z"/><path d="M7.619 3.707a3.913 3.913 0 1 0 0 7.825 3.913 3.913 0 0 0 0-7.825zm0 6.452a2.54 2.54 0 1 1 0-5.08 2.54 2.54 0 0 1 0 5.08z"/><circle cx="11.686" cy="3.552" r="1"/></g></svg>