<svg viewBox="0 0 16 16" xmlns="http://www.w3.org/2000/svg"><path d="M7.762 0C3.572 0 .142 3.429.142 7.619c0 3.238 2.033 5.968 4.826 7.111-.063-.571-.127-1.524 0-2.159.127-.571.89-3.81.89-3.81s-.191-.507-.191-1.142c0-1.08.635-1.841 1.396-1.841.635 0 .953.508.953 1.08 0 .634-.445 1.65-.635 2.539-.19.762.38 1.397 1.143 1.397 1.333 0 2.413-1.397 2.413-3.492 0-1.842-1.334-3.112-3.175-3.112-2.159 0-3.429 1.651-3.429 3.302 0 .635.254 1.333.572 1.714.063.064.063.127.063.19-.063.255-.19.763-.19.89-.064.127-.127.19-.254.127C3.57 9.968 3 8.57 3 7.493c0-2.414 1.778-4.636 5.016-4.636 2.667 0 4.698 1.905 4.698 4.381 0 2.603-1.65 4.762-3.936 4.762-.762 0-1.524-.381-1.778-.889 0 0-.381 1.46-.444 1.841-.19.635-.635 1.46-.953 1.969a7.7 7.7 0 0 0 2.159.317c4.19 0 7.619-3.428 7.619-7.619 0-4.19-3.429-7.619-7.62-7.619z" fill="#FFF" fill-rule="nonzero"/></svg>