<svg viewBox="0 0 16 13" xmlns="http://www.w3.org/2000/svg"><path d="M15.73 1.556c-.571.254-1.143.444-1.778.507A3.38 3.38 0 0 0 15.35.35a5.764 5.764 0 0 1-1.968.762A3.074 3.074 0 0 0 11.095.095a3.116 3.116 0 0 0-3.11 3.111c0 .254 0 .508.063.699A8.767 8.767 0 0 1 1.57.603a2.866 2.866 0 0 0-.444 1.587c0 1.08.571 2.032 1.397 2.604-.508 0-1.016-.127-1.397-.381v.063c0 1.524 1.08 2.794 2.476 3.048-.254.063-.508.127-.825.127-.19 0-.381 0-.572-.064a3.01 3.01 0 0 0 2.921 2.159c-1.08.825-2.413 1.333-3.873 1.333-.254 0-.508 0-.762-.063a8.888 8.888 0 0 0 4.762 1.397c5.778 0 8.889-4.762 8.889-8.89v-.38c.635-.445 1.143-1.016 1.587-1.587z" fill="#FFF" fill-rule="nonzero"/></svg>