<svg  viewBox="0 0 150 30" xmlns="http://www.w3.org/2000/svg"><path d="M97.85 24.737V14.47c0-2.143-.265-3.312-.927-4.157-.73-1.104-2.25-1.69-4.104-1.69-2.327 0-4.09.754-6.37 2.832v.784c.69-.416 1.33-.627 2.002-.627.727 0 1.522.39 1.786.974.398.65.463 1.364.463 4.548v7.602c0 2.014-.064 2.404-.263 2.924-.2.65-.662.91-1.59.976v.39h11.45v-.39c-2.184-.196-2.515-.65-2.448-3.9zm14.36.91c-.33-.585-.463-1.235-.463-2.664V8.623c-3.11.52-8.206 1.04-10.258 1.105v.39c2.514.13 3.044.975 3.044 4.678v8.77c0 2.21.198 3.315.86 4.16.727.975 2.316 1.69 3.905 1.69 1.653 0 3.44-.52 5.028-1.56.522-.326.947-.658 1.654-1.27v-.53c-.597.387-1.166.565-1.787.565-.86 0-1.654-.388-1.985-.974zm12.11-3.9V8.625c-3.11.52-8.205 1.04-10.257 1.104v.39c2.516.13 3.045.975 3.045 4.678l.066 14.684 5.095-1.56c1.787-.584 3.11-.91 4.963-1.234v-.39c-2.316-.325-2.912-1.234-2.912-4.548zm-38.913 2.925V8.624c-3.904 1.364-6.95 2.274-10.655 3.053l.066.39c1.323.13 2.052.39 2.647 1.17.662.845.794 1.754.794 4.158v6.497c0 4.028-.397 4.548-3.244 4.678v.39H87.26v-.39c-1.655-.194-1.92-.65-1.853-3.898zm64.262-3.574c-1.655 2.405-3.575 3.444-6.42 3.444-4.5 0-6.685-2.47-6.752-7.407l-.02-.434c0-4.807 1.212-7.556 3.396-7.556 1.39 0 2.184.844 2.515 2.73.198 1.038.263 2.273.263 4.807h-.033v.455h7.248c-.266-2.144-.795-3.378-1.853-4.808-1.854-2.34-4.765-3.703-8.075-3.703-6.154 0-10.986 4.743-10.986 10.72 0 5.718 4.566 10.136 10.656 10.136 3.11 0 5.89-1.235 7.743-3.443 1.124-1.365 1.786-2.47 2.647-4.808l-.33-.132zM25.824 17.8l-5.26-12.406c-.784-1.85-1.412-3.39-2.12-5.394-2.196 2.697-5.022 5.086-6.906 5.934.627.616 1.098 1.31 1.57 2.08 1.883 3.237 5.493 12.947 5.493 12.947 1.1 2.62 1.727 4.393 1.727 5.472 0 1.464-.942 2.158-2.905 2.235v.308h16.327v-.385c-2.982-.155-3.69-1.002-7.927-10.79zM8.555 23.66c0-1.85 1.02-6.473 1.02-6.473l-.548 1.464c-2.12 5.7-5.652 9.63-9.027 9.94v.385h12.56v-.385c-2.512-.155-4.004-2.004-4.004-4.932zM52.583 9.533v-.39h-7.744v.39c1.125.78 1.456 1.755 1.456 3.768 0 1.43-.338 2.962-.908 4.573-.052.41.278.806.278.806l.762-1.545c2.316-4.678 4.236-7.017 6.156-7.602zm-12.575 4.68c-.662-1.366-.993-2.47-.993-3.055 0-.91.595-1.43 1.787-1.69v-.39H27.565v.39c2.052.52 2.714 1.234 4.236 4.158L40.073 30l3.835-7.767-.328-.615-3.573-7.406zm33.223 7.016c-.86 2.337-1.523 3.442-2.648 4.807-1.853 2.208-4.633 3.443-7.742 3.443-6.09 0-10.656-4.418-10.656-10.136 0-5.977 4.83-10.72 10.986-10.72 3.31 0 6.22 1.364 8.075 3.703 1.058 1.43 1.587 2.664 1.853 4.808H65.85v-.454h.033c0-2.533-.065-3.768-.264-4.807-.332-1.885-1.126-2.73-2.516-2.73-2.184 0-3.396 2.75-3.396 7.558l.02.435c.067 4.938 2.25 7.407 6.752 7.407 2.845 0 4.765-1.04 6.42-3.444l.33.13z" fill="#9D1864" fill-rule="evenodd"/></svg>