
<svg viewBox="0 0 24 32" version="1.1" xmlns="http://www.w3.org/2000/svg" xmlns:xlink="http://www.w3.org/1999/xlink">
    <g id="HOMEPAGE" stroke="none" stroke-width="1" fill="none" fill-rule="evenodd">
        <g id="010-ig-home" transform="translate(-267.000000, -5159.000000)" fill="#9CACAE" fill-rule="nonzero">
            <g id="CATEGORIES" transform="translate(200.000000, 5019.000000)">
                <g id="01" transform="translate(0.000000, 109.000000)">
                    <g id="canvas" transform="translate(67.000000, 31.000000)">
                        <path d="M19.97,30.757 L17.97,22.757 C17.836,22.221 17.291,21.896 16.757,22.029 C16.221,22.163 15.896,22.706 16.029,23.242 L16.719,26 L7.281,26 L7.97,23.243 C8.104,22.707 7.778,22.164 7.242,22.03 C6.708,21.897 6.163,22.222 6.029,22.758 L4.029,30.758 C3.895,31.294 4.221,31.837 4.757,31.971 C4.839,31.991 4.92,32 5.001,32 C5.449,32 5.856,31.697 5.97,31.243 L6.781,28 L17.219,28 L18.03,31.243 C18.144,31.697 18.551,32 18.999,32 C19.08,32 19.161,31.991 19.243,31.97 C19.778,31.836 20.104,31.293 19.97,30.757 Z" id="Shape"></path>
                        <path d="M23,2 L14,2 L14,1 C14,0.448 13.552,0 13,0 L11,0 C10.448,0 10,0.448 10,1 L10,2 L1,2 C0.448,2 0,2.448 0,3 L0,23 C0,23.552 0.448,24 1,24 L23,24 C23.552,24 24,23.552 24,23 L24,3 C24,2.448 23.552,2 23,2 Z M22,22 L2,22 L2,20 L22,20 L22,22 Z" id="Shape"></path>
                    </g>
                </g>
            </g>
        </g>
    </g>
</svg>