
<svg viewBox="0 0 29 30" version="1.1" xmlns="http://www.w3.org/2000/svg" xmlns:xlink="http://www.w3.org/1999/xlink">
    <g id="HOMEPAGE" stroke="none" stroke-width="1" fill="none" fill-rule="evenodd">
        <g id="010-ig-home" transform="translate(-474.000000, -5315.000000)" fill="#9CACAE" fill-rule="nonzero">
            <g id="CATEGORIES" transform="translate(200.000000, 5019.000000)">
                <g id="08" transform="translate(208.000000, 269.000000)">
                    <g id="measure-big" transform="translate(66.000000, 26.000000)">
                        <path d="M28.7,29.3 L1.7,1.3 C1.4,1 1,0.9 0.6,1.1 C0.2,1.2 0,1.6 0,2 L0,10 L3,10 L3,12 L0,12 L0,15 L3,15 L3,17 L0,17 L0,20 L3,20 L3,22 L0,22 L0,25 L3,25 L3,27 L0,27 L0,30 C0,30.6 0.4,31 1,31 L28,31 C28.4,31 28.8,30.8 28.9,30.4 C29,30 29,29.6 28.7,29.3 Z M15.9,24.4 C15.8,24.8 15.4,25 15,25 L8,25 C7.4,25 7,24.6 7,24 L7,17 C7,16.6 7.2,16.2 7.6,16.1 C8,15.9 8.4,16 8.7,16.3 L15.7,23.3 C16,23.6 16.1,24 15.9,24.4 Z" id="Shape"></path>
                    </g>
                </g>
            </g>
        </g>
    </g>
</svg>