<?xml version="1.0" encoding="UTF-8"?>
<svg width="24px" height="28px" viewBox="0 0 24 28" version="1.1" xmlns="http://www.w3.org/2000/svg" xmlns:xlink="http://www.w3.org/1999/xlink">
    <!-- Generator: Sketch 60.1 (88133) - https://sketch.com -->
    <title>coffe-long</title>
    <desc>Created with Sketch.</desc>
    <g id="Page-1" stroke="none" stroke-width="1" fill="none" fill-rule="evenodd">
        <g id="040-communicado-contact-mobile" transform="translate(-38.000000, -734.000000)" fill="#D3D2CE" fill-rule="nonzero">
            <g id="coffe-long" transform="translate(38.000000, 734.000000)">
                <path d="M23.1428571,2.57142857 L18.5142857,2.57142857 L17.4,0.428571429 C17.3142857,0.171428571 16.9714286,0 16.7142857,0 L7.28571429,0 C6.94285714,0 6.68571429,0.171428571 6.51428571,0.428571429 L5.48571429,2.57142857 L0.857142857,2.57142857 C0.342857143,2.57142857 0,2.91428571 0,3.42857143 L0,6 C0,6.51428571 0.342857143,6.85714286 0.857142857,6.85714286 L23.1428571,6.85714286 C23.6571429,6.85714286 24,6.51428571 24,6 L24,3.42857143 C24,2.91428571 23.6571429,2.57142857 23.1428571,2.57142857 Z" id="Path"></path>
                <path d="M2.74285714,8.57142857 L4.28571429,26.6571429 C4.28571429,27.0857143 4.71428571,27.4285714 5.14285714,27.4285714 L18.8571429,27.4285714 C19.2857143,27.4285714 19.7142857,27.0857143 19.7142857,26.6571429 L21.2571429,8.57142857 L2.74285714,8.57142857 Z M12,21.4285714 C9.6,21.4285714 7.71428571,19.5428571 7.71428571,17.1428571 C7.71428571,14.7428571 9.6,12.8571429 12,12.8571429 C14.4,12.8571429 16.2857143,14.7428571 16.2857143,17.1428571 C16.2857143,19.5428571 14.4,21.4285714 12,21.4285714 Z" id="Shape"></path>
            </g>
        </g>
    </g>
</svg>