<svg xmlns="http://www.w3.org/2000/svg" viewBox="0 0 24 21"><g fill="#D3D2CE" fill-rule="nonzero"><path d="M5.25 16.5H.75a.75.75 0 100 1.5h4.5a.75.75 0 100-1.5zM.75 4.5H9A.75.75 0 109 3H.75a.75.75 0 100 1.5zM.75 9H9a.75.75 0 100-1.5H.75a.75.75 0 100 1.5zM5.25 12H.75a.75.75 0 100 1.5h4.5a.75.75 0 100-1.5zM21.313 11.97c-3.206-.949-6.32-.967-9.62.01A3.729 3.729 0 009 15.579v4.671c0 .415.336.75.75.75h13.5a.75.75 0 00.75-.75v-4.681a3.726 3.726 0 00-2.687-3.598zM16.5 9.75c2.534 0 4.5-2.822 4.5-5.25C21 2.018 18.982 0 16.5 0A4.505 4.505 0 0012 4.5c0 2.428 1.966 5.25 4.5 5.25z"/></g></svg>