<svg width="32" height="32" xmlns="http://www.w3.org/2000/svg"><g fill="none" fill-rule="evenodd"><path fill="#31CBE2" d="M15.515 0l-.264.264-2.38 2.38-.265.265.264.265 2.38 2.38.265.264.264-.264 2.38-2.38.265-.265-.264-.264-2.38-2.38z"/><path fill="#D7E1E2" d="M9.535 6.084L.26 15.52 0 15.786l.261.266 15.413 15.682.26.266.262-.266L31.739 15.92l.261-.266-.261-.266-8.882-9.037-.261-.266-.261.266-8.62 8.771-.262.266.261.266 2.351 2.392.262.266.26-.266 6.009-6.113 3.657 3.721-10.318 10.5L5.747 15.785l6.661-6.778.261-.266-.26-.266-2.352-2.392-.26-.266z"/></g></svg>