<?xml version="1.0" encoding="UTF-8"?>
<svg width="110px" height="34px" viewBox="0 0 110 34" version="1.1" xmlns="http://www.w3.org/2000/svg" xmlns:xlink="http://www.w3.org/1999/xlink">
    <!-- Generator: Sketch 58 (84663) - https://sketch.com -->
    <title>made-by-avenue@2x</title>
    <desc>Created with Sketch.</desc>
    <g id="Symbols" stroke="none" stroke-width="1" fill="none" fill-rule="evenodd">
        <g id="FOOTER" transform="translate(-1289.000000, -299.000000)" fill="#9CACAE">
            <g id="made-by-avenue" transform="translate(1289.000000, 299.000000)">
                <path d="M71.7566667,30.1404667 L71.7566667,22.6113333 C71.7566667,21.0398 71.5623333,20.1825333 71.0768667,19.5628667 C70.5415333,18.7532667 69.4268667,18.3235333 68.0672667,18.3235333 C66.3608,18.3235333 65.0679333,18.8764667 63.3959333,20.4003333 L63.3959333,20.9752667 C63.9019333,20.6702 64.3712667,20.5154667 64.8640667,20.5154667 C65.3972,20.5154667 65.9802,20.8014667 66.1738,21.2297333 C66.4656667,21.7064 66.5133333,22.23 66.5133333,24.5649333 L66.5133333,30.1397333 C66.5133333,31.6166667 66.4664,31.9026667 66.3204667,32.284 C66.1738,32.7606667 65.835,32.9513333 65.1544667,32.9997333 L65.1544667,33.2857333 L73.5511333,33.2857333 L73.5511333,32.9997333 C71.9495333,32.856 71.7068,32.5230667 71.7559333,30.1397333 L71.7566667,30.1404667 Z M82.2873333,30.8078 C82.0453333,30.3788 81.9478,29.9021333 81.9478,28.8542 L81.9478,18.3235333 C79.6671333,18.7048667 75.9300667,19.0862 74.4252667,19.1338667 L74.4252667,19.4198667 C76.2688667,19.5152 76.6575333,20.1348667 76.6575333,22.8504 L76.6575333,29.2817333 C76.6575333,30.9024 76.8027333,31.7127333 77.2882,32.3324 C77.8213333,33.0474 78.9866,33.5717333 80.1518667,33.5717333 C81.3640667,33.5717333 82.6745333,33.1904 83.8390667,32.4277333 C84.2218667,32.1886667 84.5335333,31.9452 85.052,31.4964 L85.052,31.1077333 C84.6142,31.3915333 84.1969333,31.5220667 83.7415333,31.5220667 C83.1108667,31.5220667 82.5286,31.2375333 82.2858667,30.8078 L82.2873333,30.8078 Z M91.168,27.9478 L91.168,18.325 C88.8873333,18.7063333 85.151,19.0876667 83.6462,19.1346 L83.6462,19.4206 C85.4912667,19.5159333 85.8792,20.1356 85.8792,22.8511333 L85.9276,33.6194 L89.6639333,32.4754 C90.9744,32.0471333 91.9446,31.8080667 93.3034667,31.5704667 L93.3034667,31.2844667 C91.6050667,31.0461333 91.168,30.3795333 91.168,27.9492667 L91.168,27.9478 Z M62.6318,30.0928 L62.6318,18.3242667 C59.7688667,19.3245333 57.5351333,19.9918667 54.8181333,20.5631333 L54.8665333,20.8491333 C55.8367333,20.9444667 56.3713333,21.1351333 56.8076667,21.7071333 C57.2931333,22.3268 57.3899333,22.9934 57.3899333,24.7563333 L57.3899333,29.5208 C57.3899333,32.4746667 57.0988,32.856 55.011,32.9513333 L55.011,33.2373333 L63.9906667,33.2373333 L63.9906667,32.9513333 C62.777,32.8090667 62.5826667,32.4746667 62.6318,30.0928 L62.6318,30.0928 Z M109.757267,27.4718667 C108.5436,29.2355333 107.1356,29.9974667 105.049267,29.9974667 C101.749267,29.9974667 100.146933,28.1861333 100.0978,24.5656667 L100.083133,24.2474 C100.083133,20.7222667 100.971933,18.7063333 102.573533,18.7063333 C103.592867,18.7063333 104.175133,19.3252667 104.417867,20.7083333 C104.563067,21.4695333 104.610733,22.3752 104.610733,24.2334667 L104.586533,24.2334667 L104.586533,24.5671333 L109.901733,24.5671333 C109.706667,22.9948667 109.318733,22.0899333 108.542867,21.0412667 C107.183267,19.3252667 105.048533,18.3257333 102.6212,18.3257333 C98.1082667,18.3257333 94.5648,21.8039333 94.5648,26.1870667 C94.5648,30.3802667 97.9132,33.6201333 102.3792,33.6201333 C104.659867,33.6201333 106.698533,32.7144667 108.0574,31.0952667 C108.881667,30.0942667 109.367133,29.2839333 109.998533,27.5694 L109.756533,27.4726 L109.757267,27.4718667 Z M18.9376,25.0533333 L15.0802667,15.9556 C14.5053333,14.5989333 14.0448,13.4696 13.5256,12 C11.9152,13.9778 9.8428,15.7297333 8.4612,16.3516 C8.921,16.8033333 9.2664,17.3122667 9.61253333,17.8769333 C10.9934,20.2507333 13.6407333,27.3714 13.6407333,27.3714 C14.4474,29.2927333 14.9072,30.5929333 14.9072,31.3842 C14.9072,32.4578 14.2164,32.9667333 12.7768667,33.0232 L12.7768667,33.2490667 L24.75,33.2490667 L24.75,32.9667333 C22.5632,32.8530667 22.044,32.2319333 18.9368667,25.0540667 L18.9376,25.0533333 Z M6.27366667,29.3506667 C6.27366667,27.994 7.02166667,24.6038 7.02166667,24.6038 L6.6198,25.6774 C5.06513333,29.8574 2.475,32.7394 0,32.9667333 L0,33.2490667 L9.21066667,33.2490667 L9.21066667,32.9667333 C7.36853333,32.8530667 6.2744,31.4971333 6.2744,29.3499333 L6.27366667,29.3506667 Z M38.5608667,18.9908667 L38.5608667,18.7048667 L32.8819333,18.7048667 L32.8819333,18.9908667 C33.7069333,19.5628667 33.9496667,20.2778667 33.9496667,21.7540667 C33.9496667,22.8027333 33.7018,23.9262 33.2838,25.1076 C33.2456667,25.4082667 33.4876667,25.6986667 33.4876667,25.6986667 L34.0464667,24.5656667 C35.7448667,21.1351333 37.1528667,19.4198667 38.5608667,18.9908667 Z M29.3392,22.4228667 C28.8537333,21.4211333 28.611,20.6115333 28.611,20.1825333 C28.611,19.5152 29.0473333,19.1338667 29.9214667,18.9432 L29.9214667,18.6572 L20.2143333,18.6572 L20.2143333,18.9432 C21.7191333,19.3245333 22.2046,19.8481333 23.3207333,21.9924 L29.3868667,34 L32.1992,28.3042 L31.9586667,27.8532 L29.3384667,22.4221333 L29.3392,22.4228667 Z M53.7027333,27.5679333 C53.0720667,29.2817333 52.5858667,30.0920667 51.7608667,31.0930667 C50.402,32.7122667 48.3633333,33.6179333 46.0834,33.6179333 C41.6174,33.6179333 38.269,30.3780667 38.269,26.1848667 C38.269,21.8017333 41.811,18.3235333 46.3254,18.3235333 C48.7527333,18.3235333 50.8867333,19.3238 52.2470667,21.0390667 C53.0229333,22.0877333 53.4108667,22.9926667 53.6059333,24.5649333 L48.29,24.5649333 L48.29,24.232 L48.3142,24.232 C48.3142,22.3744667 48.2665333,21.4688 48.1206,20.7068667 C47.8771333,19.3245333 47.2948667,18.7048667 46.2755333,18.7048667 C44.6739333,18.7048667 43.7851333,20.7215333 43.7851333,24.2474 L43.7998,24.5664 C43.8489333,28.1876 45.4498,29.9982 48.7512667,29.9982 C50.8376,29.9982 52.2456,29.2355333 53.4592667,27.4726 L53.7012667,27.5679333 L53.7027333,27.5679333 Z" id="Shape"></path>
                <path d="M3.78,0.92 L5.75,0.92 L7.59,5.95 L7.62,5.95 L9.44,0.92 L11.42,0.92 L11.42,8 L10.17,8 L10.17,2.31 L10.15,2.31 L8,8 L7.12,8 L5,2.31 L4.98,2.31 L4.98,8 L3.78,8 L3.78,0.92 Z M15.9,7.39 L15.87,7.39 C15.7499994,7.6033344 15.556668,7.77833265 15.29,7.915 C15.023332,8.05166735 14.7200017,8.12 14.38,8.12 C14.1866657,8.12 13.985001,8.09500025 13.775,8.045 C13.564999,7.99499975 13.3716675,7.91166725 13.195,7.795 C13.0183324,7.67833275 12.8716672,7.52500095 12.755,7.335 C12.6383328,7.14499905 12.58,6.9100014 12.58,6.63 C12.58,6.2699982 12.6816657,5.9833344 12.885,5.77 C13.0883343,5.5566656 13.3499984,5.3933339 13.67,5.28 C13.9900016,5.1666661 14.344998,5.09166685 14.735,5.055 C15.125002,5.01833315 15.5066648,5 15.88,5 L15.88,4.88 C15.88,4.5799985 15.7716678,4.35833405 15.555,4.215 C15.3383322,4.07166595 15.08,4 14.78,4 C14.5266654,4 14.2833345,4.0533328 14.05,4.16 C13.8166655,4.2666672 13.6233341,4.3966659 13.47,4.55 L12.85,3.82 C13.1233347,3.5666654 13.4383315,3.3766673 13.795,3.25 C14.1516684,3.1233327 14.5133315,3.06 14.88,3.06 C15.3066688,3.06 15.658332,3.1199994 15.935,3.24 C16.2116681,3.3600006 16.4299992,3.5166657 16.59,3.71 C16.7500008,3.9033343 16.8616663,4.1199988 16.925,4.36 C16.9883336,4.6000012 17.02,4.8399988 17.02,5.08 L17.02,8 L15.9,8 L15.9,7.39 Z M15.88,5.98 L15.88,5.81 L15.61,5.81 C15.4166657,5.81 15.2133344,5.81833325 15,5.835 C14.7866656,5.85166675 14.5900009,5.88833305 14.41,5.945 C14.2299991,6.00166695 14.0800006,6.08166615 13.96,6.185 C13.8399994,6.28833385 13.78,6.4299991 13.78,6.61 C13.78,6.7233339 13.8049997,6.81833295 13.855,6.895 C13.9050003,6.97166705 13.9699996,7.0333331 14.05,7.08 C14.1300004,7.1266669 14.2199995,7.1599999 14.32,7.18 C14.4200005,7.2000001 14.5199995,7.21 14.62,7.21 C15.0333354,7.21 15.3466656,7.1000011 15.56,6.88 C15.7733344,6.6599989 15.88,6.3600019 15.88,5.98 Z M23.3,8 L22.16,8 L22.16,7.28 L22.14,7.28 C21.9733325,7.5600014 21.7416681,7.7733326 21.445,7.92 C21.1483318,8.0666674 20.8300017,8.14 20.49,8.14 C20.1233315,8.14 19.7950014,8.07166735 19.505,7.935 C19.2149986,7.79833265 18.9683344,7.61500115 18.765,7.385 C18.5616656,7.15499885 18.4050006,6.88500155 18.295,6.575 C18.1849995,6.26499845 18.13,5.9333351 18.13,5.58 C18.13,5.2266649 18.1866661,4.8966682 18.3,4.59 C18.4133339,4.2833318 18.5733323,4.0166678 18.78,3.79 C18.9866677,3.5633322 19.2333319,3.38500065 19.52,3.255 C19.8066681,3.12499935 20.1199983,3.06 20.46,3.06 C20.6800011,3.06 20.8766658,3.08499975 21.05,3.135 C21.2233342,3.18500025 21.3749994,3.2466663 21.505,3.32 C21.6350006,3.3933337 21.7466662,3.4733329 21.84,3.56 C21.9333338,3.6466671 22.0099997,3.7299996 22.07,3.81 L22.1,3.81 L22.1,0.44 L23.3,0.44 L23.3,8 Z M19.35,5.58 C19.35,5.7666676 19.3783331,5.9533324 19.435,6.14 C19.491667,6.3266676 19.5766661,6.4933326 19.69,6.64 C19.8033339,6.7866674 19.9466658,6.9066662 20.12,7 C20.2933342,7.0933338 20.4966655,7.14 20.73,7.14 C20.9500011,7.14 21.1466658,7.09500045 21.32,7.005 C21.4933342,6.91499955 21.641666,6.7966674 21.765,6.65 C21.888334,6.5033326 21.9816664,6.33833425 22.045,6.155 C22.1083337,5.97166575 22.14,5.7866676 22.14,5.6 C22.14,5.4133324 22.1083337,5.2266676 22.045,5.04 C21.9816664,4.8533324 21.888334,4.6866674 21.765,4.54 C21.641666,4.3933326 21.4933342,4.2733338 21.32,4.18 C21.1466658,4.0866662 20.9500011,4.04 20.73,4.04 C20.4966655,4.04 20.2933342,4.08499955 20.12,4.175 C19.9466658,4.26500045 19.8033339,4.3833326 19.69,4.53 C19.5766661,4.6766674 19.491667,4.84166575 19.435,5.025 C19.3783331,5.20833425 19.35,5.3933324 19.35,5.58 Z M28.14,5.12 C28.14,4.9666659 28.1183335,4.8200007 28.075,4.68 C28.0316665,4.5399993 27.9633338,4.4166672 27.87,4.31 C27.7766662,4.2033328 27.658334,4.11833365 27.515,4.055 C27.371666,3.99166635 27.2033343,3.96 27.01,3.96 C26.6499982,3.96 26.3450012,4.06833225 26.095,4.285 C25.8449988,4.50166775 25.7066668,4.7799983 25.68,5.12 L28.14,5.12 Z M29.34,5.66 L29.34,5.82 C29.34,5.8733336 29.3366667,5.9266664 29.33,5.98 L25.68,5.98 C25.6933334,6.1533342 25.738333,6.31166595 25.815,6.455 C25.8916671,6.59833405 25.9933327,6.72166615 26.12,6.825 C26.2466673,6.92833385 26.3899992,7.0099997 26.55,7.07 C26.7100008,7.1300003 26.8766658,7.16 27.05,7.16 C27.3500015,7.16 27.6033323,7.10500055 27.81,6.995 C28.0166677,6.88499945 28.186666,6.7333343 28.32,6.54 L29.12,7.18 C28.6466643,7.8200032 27.9600045,8.14 27.06,8.14 C26.6866648,8.14 26.3433349,8.08166725 26.03,7.965 C25.7166651,7.84833275 25.4450012,7.6833344 25.215,7.47 C24.9849989,7.2566656 24.8050007,6.99500155 24.675,6.685 C24.5449993,6.37499845 24.48,6.0233353 24.48,5.63 C24.48,5.2433314 24.5449993,4.89166825 24.675,4.575 C24.8050007,4.25833175 24.9833322,3.98833445 25.21,3.765 C25.4366678,3.54166555 25.7049984,3.36833395 26.015,3.245 C26.3250016,3.12166605 26.6599982,3.06 27.02,3.06 C27.353335,3.06 27.6616652,3.11499945 27.945,3.225 C28.2283347,3.33500055 28.4733323,3.49833225 28.68,3.715 C28.8866677,3.93166775 29.0483328,4.20166505 29.165,4.525 C29.2816673,4.84833495 29.34,5.2266645 29.34,5.66 Z M34.22,0.44 L34.22,3.81 L34.25,3.81 C34.3100003,3.7299996 34.3866662,3.6466671 34.48,3.56 C34.5733338,3.4733329 34.6849993,3.3933337 34.815,3.32 C34.9450007,3.2466663 35.0966658,3.18500025 35.27,3.135 C35.4433342,3.08499975 35.6399989,3.06 35.86,3.06 C36.2000017,3.06 36.5133319,3.12499935 36.8,3.255 C37.0866681,3.38500065 37.3333323,3.5633322 37.54,3.79 C37.7466677,4.0166678 37.9066661,4.2833318 38.02,4.59 C38.1333339,4.8966682 38.19,5.2266649 38.19,5.58 C38.19,5.9333351 38.1350006,6.26499845 38.025,6.575 C37.9149995,6.88500155 37.7583344,7.15499885 37.555,7.385 C37.3516657,7.61500115 37.1050014,7.79833265 36.815,7.935 C36.5249985,8.07166735 36.1966685,8.14 35.83,8.14 C35.4899983,8.14 35.1716681,8.0666674 34.875,7.92 C34.5783319,7.7733326 34.3466675,7.5600014 34.18,7.28 L34.16,7.28 L34.16,8 L33.02,8 L33.02,0.44 L34.22,0.44 Z M36.97,5.58 C36.97,5.3933324 36.9416669,5.20833425 36.885,5.025 C36.8283331,4.84166575 36.7433339,4.6766674 36.63,4.53 C36.5166661,4.3833326 36.3733342,4.26500045 36.2,4.175 C36.0266658,4.08499955 35.8233345,4.04 35.59,4.04 C35.3699989,4.04 35.1733342,4.0866662 35,4.18 C34.8266658,4.2733338 34.678334,4.3933326 34.555,4.54 C34.4316661,4.6866674 34.3383337,4.8533324 34.275,5.04 C34.2116664,5.2266676 34.18,5.4133324 34.18,5.6 C34.18,5.7866676 34.2116664,5.97166575 34.275,6.155 C34.3383337,6.33833425 34.4316661,6.5033326 34.555,6.65 C34.678334,6.7966674 34.8266658,6.91499955 35,7.005 C35.1733342,7.09500045 35.3699989,7.14 35.59,7.14 C35.8233345,7.14 36.0266658,7.0933338 36.2,7 C36.3733342,6.9066662 36.5166661,6.7866674 36.63,6.64 C36.7433339,6.4933326 36.8283331,6.3266676 36.885,6.14 C36.9416669,5.9533324 36.97,5.7666676 36.97,5.58 Z M38.63,3.2 L39.96,3.2 L41.3,6.69 L41.32,6.69 L42.51,3.2 L43.76,3.2 L41.49,9.03 C41.4033329,9.2500011 41.3100005,9.44499915 41.21,9.615 C41.1099995,9.78500085 40.9900007,9.92833275 40.85,10.045 C40.7099993,10.1616672 40.545001,10.2499997 40.355,10.31 C40.1649991,10.3700003 39.936668,10.4 39.67,10.4 C39.5699995,10.4 39.4683338,10.3950001 39.365,10.385 C39.2616662,10.375 39.1566672,10.3566668 39.05,10.33 L39.15,9.29 C39.2300004,9.3166668 39.308333,9.33499995 39.385,9.345 C39.461667,9.35500005 39.533333,9.36 39.6,9.36 C39.7266673,9.36 39.8333329,9.34500015 39.92,9.315 C40.0066671,9.28499985 40.0799997,9.23833365 40.14,9.175 C40.2000003,9.11166635 40.2533331,9.0333338 40.3,8.94 L40.3977777,8.73111129 C40.4148147,8.69259282 40.4322221,8.65222243 40.45,8.61 L40.69,8 L38.63,3.2 Z" id="Madeby" fill-rule="nonzero"></path>
            </g>
        </g>
    </g>
</svg>